<?xml version="1.0" ?><svg id="Layer_1" style="enable-background:new 0 0 512 512;" version="1.1" viewBox="0 0 512 512" xml:space="preserve" xmlns="http://www.w3.org/2000/svg" xmlns:xlink="http://www.w3.org/1999/xlink"><style type="text/css">
	.st0{fill:#E8D55F;stroke:#414042;stroke-width:20;stroke-miterlimit:10;}
	.st1{fill:#F9F5B8;}
	.st2{fill:#FBEC7D;}
	.st3{fill:#5FC5E5;stroke:#414042;stroke-width:16;stroke-miterlimit:10;}
	.st4{fill:#414042;}
	.st5{fill:none;stroke:#414042;stroke-width:12.1497;stroke-linecap:round;stroke-linejoin:round;stroke-miterlimit:10;}
	.st6{fill:none;stroke:#414042;stroke-width:20;stroke-miterlimit:10;}
	.st7{fill:#D1384A;stroke:#414042;stroke-width:16;stroke-miterlimit:10;}
</style><circle class="st0" cx="262.4" cy="266.6" id="XMLID_217_" r="195.1"/><path class="st1" d="M445.9,268c0,93.1-54.1,160.1-151.4,173.3C197.9,454.5,92.9,361.1,92.9,268s79-178,176.5-178  S445.9,174.9,445.9,268z" id="XMLID_216_"/><path class="st2" d="M439.7,267.8c0,98.4-54.1,169.3-151.4,183.3C191.9,465,86.9,366.3,86.9,267.8  s79-188.4,176.4-189.4C377.8,77.3,439.7,169.4,439.7,267.8z" id="XMLID_215_"/><circle class="st3" cx="404.6" cy="71.5" id="XMLID_214_" r="26.6"/><circle class="st4" cx="265" cy="313.2" id="XMLID_208_" r="5"/><circle class="st4" cx="290.1" cy="205.2" id="XMLID_207_" r="5"/><circle class="st4" cx="173" cy="475.8" id="XMLID_206_" r="11.3"/><path class="st5" d="M386.3,159.3c-4.8-13.7-16.9-22-27.2-18.4" id="XMLID_205_"/><circle class="st4" cx="178" cy="48.2" id="XMLID_204_" r="5"/><circle class="st4" cx="321.6" cy="43.2" id="XMLID_203_" r="5"/><circle class="st4" cx="409.6" cy="119.2" id="XMLID_202_" r="5"/><circle class="st4" cx="392.9" cy="31.9" id="XMLID_201_" r="7.7"/><path class="st6" d="M457.4,292.6c20.2,22.5,28.8,43.3,22.3,59c-17,40.6-129.5,32-251.1-19S22,207.2,39.1,166.7  c7.7-18.4,34.9-26.7,73.7-25.5" id="XMLID_1_"/><circle class="st7" cx="228.5" cy="332.6" id="XMLID_213_" r="22.6"/></svg>