<?xml version="1.0" ?><svg id="Layer_1" style="enable-background:new 0 0 512 512;" version="1.1" viewBox="0 0 512 512" xml:space="preserve" xmlns="http://www.w3.org/2000/svg" xmlns:xlink="http://www.w3.org/1999/xlink"><style type="text/css">
	.st0{fill:#E8D55F;stroke:#414042;stroke-width:20;stroke-miterlimit:10;}
	.st1{fill:#F9F5B8;}
	.st2{fill:#FBEC7D;}
	.st3{fill:#5FC5E5;stroke:#414042;stroke-width:17;stroke-miterlimit:10;}
	.st4{fill:#414042;}
	.st5{fill:none;stroke:#414042;stroke-width:12.1497;stroke-linecap:round;stroke-linejoin:round;stroke-miterlimit:10;}
	.st6{fill:none;stroke:#414042;stroke-width:20;stroke-miterlimit:10;}
	.st7{fill:#F7941E;stroke:#414042;stroke-width:17;stroke-miterlimit:10;}
	.st8{fill:none;stroke:#414042;stroke-width:20;stroke-linecap:round;stroke-linejoin:round;stroke-miterlimit:10;}
</style><circle class="st0" cx="262.7" cy="275.5" id="XMLID_404_" r="195.1"/><path class="st1" d="M445.7,275.1c0,95.4-54,164.1-151.2,177.7c-96.4,13.4-201.3-82.2-201.3-177.7  S172.1,92.7,269.4,92.7S445.7,179.7,445.7,275.1z" id="XMLID_403_"/><path class="st2" d="M441.6,275.6c0,95.1-54.3,163.5-152.1,177c-96.9,13.4-202.4-81.9-202.4-177  S166.5,93.7,264.4,92.7C379.4,91.6,441.6,180.5,441.6,275.6z" id="XMLID_402_"/><circle class="st3" cx="436.6" cy="52.2" id="XMLID_401_" r="26.6"/><circle class="st4" cx="265.3" cy="322.2" id="XMLID_400_" r="5"/><circle class="st4" cx="290.4" cy="214.2" id="XMLID_399_" r="8.1"/><circle class="st4" cx="173.3" cy="484.8" id="XMLID_398_" r="11.3"/><path class="st5" d="M386.6,168.3c-4.8-13.7-16.9-22-27.2-18.4" id="XMLID_397_"/><circle class="st4" cx="178.3" cy="57.2" id="XMLID_396_" r="5"/><circle class="st4" cx="240.3" cy="268.1" id="XMLID_394_" r="5"/><circle class="st4" cx="380.7" cy="52.2" id="XMLID_393_" r="7.7"/><path class="st6" d="M457.7,301.6c20.2,22.5,28.8,43.3,22.3,59c-17,40.6-129.5,32-251.1-19S22.3,216.2,39.4,175.6  c7.7-18.4,34.9-26.7,73.7-25.5" id="XMLID_392_"/><circle class="st7" cx="206.3" cy="236.7" id="XMLID_391_" r="22.6"/><path class="st8" d="M390,117c28.9-8.7,46.5-6.8,57.9,5.8c29.5,32.6-26,130.8-123.9,219.3s-201.2,133.7-230.7,101  c-13.3-14.8-14.7-31.5,2.8-66.1" id="XMLID_274_"/></svg>